<svg xmlns="http://www.w3.org/2000/svg" xmlns:xlink="http://www.w3.org/1999/xlink" version="1.1" width="256" height="256" viewBox="0 0 256 256" xml:space="preserve">

<defs>
</defs>
<g style="stroke: none; stroke-width: 0; stroke-dasharray: none; stroke-linecap: butt; stroke-linejoin: miter; stroke-miterlimit: 10; fill: none; fill-rule: nonzero; opacity: 1;" transform="translate(1.4065934065934016 1.4065934065934016) scale(2.81 2.81)" >
	<path d="M 24.158 58.132 h 54.898 c 2.293 0 4.313 -1.509 4.964 -3.709 l 5.841 -19.759 c 0.633 -2.141 -0.972 -4.289 -3.204 -4.289 H 16.95 L 24.158 58.132 z" style="stroke: none; stroke-width: 1; stroke-dasharray: none; stroke-linecap: butt; stroke-linejoin: miter; stroke-miterlimit: 10; fill: rgb(64,89,107); fill-rule: nonzero; opacity: 1;" transform=" matrix(1 0 0 1 0 0) " stroke-linecap="round" />
	<path d="M 79.585 70.935 H 27.091 c -0.687 0 -1.287 -0.465 -1.46 -1.129 L 14.404 26.57 c -0.421 -1.62 -1.883 -2.751 -3.557 -2.751 H 1.508 C 0.675 23.819 0 23.143 0 22.31 s 0.675 -1.508 1.508 -1.508 h 9.339 c 3.048 0 5.711 2.06 6.476 5.01 l 10.935 42.106 h 51.327 c 0.833 0 1.508 0.676 1.508 1.508 C 81.093 70.259 80.417 70.935 79.585 70.935 z" style="stroke: none; stroke-width: 1; stroke-dasharray: none; stroke-linecap: butt; stroke-linejoin: miter; stroke-miterlimit: 10; fill: rgb(64,89,107); fill-rule: nonzero; opacity: 1;" transform=" matrix(1 0 0 1 0 0) " stroke-linecap="round" />
	<circle cx="36.176" cy="81.476" r="6.536" style="stroke: none; stroke-width: 1; stroke-dasharray: none; stroke-linecap: butt; stroke-linejoin: miter; stroke-miterlimit: 10; fill: rgb(64,89,107); fill-rule: nonzero; opacity: 1;" transform="  matrix(1 0 0 1 0 0) "/>
	<circle cx="69.15599999999999" cy="81.476" r="6.536" style="stroke: none; stroke-width: 1; stroke-dasharray: none; stroke-linecap: butt; stroke-linejoin: miter; stroke-miterlimit: 10; fill: rgb(64,89,107); fill-rule: nonzero; opacity: 1;" transform="  matrix(1 0 0 1 0 0) "/>
	<path d="M 51.999 41.778 c -0.256 0 -0.512 -0.098 -0.707 -0.293 L 33.306 23.499 c -0.187 -0.187 -0.293 -0.442 -0.293 -0.707 s 0.105 -0.52 0.293 -0.707 l 6.564 -6.564 c 0.391 -0.391 1.023 -0.391 1.414 0 l 5.073 5.073 V 2.985 c 0 -0.552 0.447 -1 1 -1 h 9.283 c 0.553 0 1 0.448 1 1 v 17.609 l 5.073 -5.073 c 0.391 -0.391 1.023 -0.391 1.414 0 l 6.564 6.564 c 0.188 0.187 0.293 0.442 0.293 0.707 s -0.105 0.52 -0.293 0.707 L 52.706 41.485 C 52.511 41.68 52.255 41.778 51.999 41.778 z" style="stroke: none; stroke-width: 1; stroke-dasharray: none; stroke-linecap: butt; stroke-linejoin: miter; stroke-miterlimit: 10; fill: rgb(231,78,58); fill-rule: nonzero; opacity: 1;" transform=" matrix(1 0 0 1 0 0) " stroke-linecap="round" />
</g>
</svg>